# xmcd
#
# Track frame offsets:
#	150
#	15607
#	33102
#	51192
#	69430
#	81260
#	94715
#	109730
#	124007
#	137780
#	149287
#	164230
#	179522
#	191847
#	205922
#	221082
#
# Disc length: 3110 seconds
# Revision: 2
# Processed by: cddbd v1.5.2PL0 Copyright (c) Steve Scherf et al.
# Submitted via: dBpowerAMP V12.0
#
DISCID=ef0c2410
DTITLE=Various Artist - Hot Country Hits Three
DYEAR=1990
DGENRE=Country
TTITLE0=Rodney Crowell - If Looks Could Kill
TTITLE1=Mary Chapin Carpenter - Quittin Time
TTITLE2=Vern Goslin - That Just About Does It
TTITLE3=Shenandoah - Sunday In The South
TTITLE4=Rosanne Cash - I Don't Want To Spoil The Party
TTITLE5=Waylon Jennings - Wrong
TTITLE6=Sweethearts Of The Rodeo - This Heart
TTITLE7=Ricky Skaggs - Hummingbird
TTITLE8=Ricky Van Shelton - Statue Of A Fool
TTITLE9=Dolly Parton - Why'd You Come In Here Lookin Like That
TTITLE10=Willie Nelson - Nothing I Can Do About It Now
TTITLE11=Charlie Daniels Band The - Simple Man
TTITLE12=O'Kanes The - Why Should I
TTITLE13=Great Western Orchestra The - Ride On
TTITLE14=Doug Stone - I'd Be Better Off In A Pine Box
TTITLE15=Tanya Tucker - Strong Enought To Bend
EXTD=
EXTT0=
EXTT1=
EXTT2=
EXTT3=
EXTT4=
EXTT5=
EXTT6=
EXTT7=
EXTT8=
EXTT9=
EXTT10=
EXTT11=
EXTT12=
EXTT13=
EXTT14=
EXTT15=
PLAYORDER=
